<?xml version="1.0" encoding="UTF-8"?><svg id="Layer_1" xmlns="http://www.w3.org/2000/svg" viewBox="0 0 216.47 347.69"><defs><style>.cls-1{fill:#aae0fa;}.cls-2{fill:none;stroke:#fff;stroke-miterlimit:10;}</style></defs><path class="cls-1" d="M194.88,174.95c-9.24-12.53-22.7-31.74-40.42-57.58-14.39-21.78-21.58-44.1-21.58-67,0-9.97,2.57-26.75,7.75-50.38C105.18,29.16,74.36,63.12,48.17,101.87,16.06,149.11,0,191.2,0,228.11c0,34.32,9.41,62.55,28.24,84.7,19.93,23.26,46.87,34.88,80.83,34.88,30.26,0,55.73-10.52,76.41-31.57h0c20.66-21.03,30.99-46.86,30.99-77.51,0-20.66-7.2-41.88-21.59-63.66Zm-22.14,82.49c-12.93,0-19.37-6.46-19.37-19.38l7.19-22.15c4.44-14.39,6.65-25.46,6.65-33.21,0-4.06-.56-7.2-1.66-9.42,7.38,4.07,13.85,12.28,19.38,24.64h0c5.54,12.38,8.3,23.17,8.3,32.39,0,18.08-6.83,27.13-20.49,27.13Z"/><rect class="cls-2" x="-619.79" y="-1346.86" width="2066.68" height="2871"/></svg>