<?xml version="1.0" encoding="UTF-8"?><svg id="Layer_1" xmlns="http://www.w3.org/2000/svg" viewBox="0 0 333.14 370.81"><defs><style>.cls-1{fill:#f9aa8f;}.cls-2{fill:none;stroke:#fff;stroke-miterlimit:10;}</style></defs><g><path class="cls-1" d="M129.24,100.15c6.91,9.86,14.83,14.83,23.62,14.83,6.62,0,13.32-2.09,20.09-6.34,6.77-4.25,10.15-9.43,10.15-15.7h.07c0-12.82-6.05-19.22-18.14-19.22-5.18,0-9.79,2.59-14.04,7.7s-7.27,7.7-9.07,7.7c-2.23,0-7.27-2.59-15.12-7.7-7.92-5.11-13.46-7.7-16.78-7.7-2.59,0-4.82,.94-6.62,2.74,8.78,3.74,17.42,11.59,25.85,23.69Z"/><path class="cls-1" d="M317.23,203.69c8.42-14.76,12.67-31.1,12.67-49.18,0-34.27-15.05-70.56-45.07-108.86,4.75,11.95,8.21,20.88,10.44,26.78,5.83,15.26,8.78,27.94,8.78,37.94,0,7.78-2.02,13.39-6.05,16.7C274.54,42.34,219.17,0,131.9,0c-6.55,0-18.14,.94-34.63,2.74-19.44,2.23-29.88,4.25-31.32,6.05,12.89,1.15,21.67,1.87,26.42,2.23,48.74,4.39,73.15,12.82,73.15,25.27,0,4.75-17.78,10.08-53.35,15.91,20.16,6.62,31.54,9.94,34.13,9.94,8.42,0,17.78-2.81,28.08-8.28,10.3-5.54,18-8.28,23.11-8.28,10.94,0,19.94,5.69,26.93,17.06,6.26,9.5,9.36,20.16,9.36,31.9,0,9.14-2.23,13.75-6.62,13.75-3.31,0-8.06-4.61-14.33-13.75-4.39-6.98-7.7-12.1-9.86-15.41-.72,2.59-1.08,5.11-1.08,7.7,0,15.41,7.06,29.74,21.17,42.91s28.87,20.16,44.28,20.88c-.72,9.94-3.31,20.16-7.7,30.82-5.11,13.97-10.94,22.18-17.57,24.77-4.46-4.39-6.62-10.66-6.62-18.72,0-3.67,1.22-9.36,3.6-17.06,2.45-7.7,3.6-13.18,3.6-16.49-3.67,1.44-7.78,5.4-12.38,11.81s-7.27,11.81-7.99,16.2c-2.59,15.41-3.31,28.58-2.23,39.6,1.08,9.5-2.95,20.16-12.1,31.9-9.22,11.74-18.58,17.57-28.08,17.57-6.26,0-11.95-1.3-17.06-3.89-6.55-3.24-9.86-7.7-9.86-13.18,0-8.78,7.85-17.78,23.62-26.93,21.99-13.15,34.8-38.93,38.5-77.33-1.1,1.11-10.65,6.65-28.56,16.56-20.16,11.16-37.08,16.78-50.62,16.78-3.31,0-9.79-1.22-19.51-3.82-9.72-2.52-17.57-3.82-23.4-3.82-26.35,0-48.46,9.29-66.24,27.79C8.86,221.76,0,244.22,0,270.58c0,24.91,8.57,47.45,25.85,67.61,17.57,21.31,38.66,32.11,63.22,32.47,74.81,1.44,128.16-7.13,160.06-25.85-5.47,0-19.01-.22-40.68-.79-21.67-.5-27.86-.79-18.72-.79-1.87,0-4.03-1.22-6.62-3.6-2.52-2.38-3.82-4.54-3.82-6.34,0-5.83,7.7-10.44,23.11-13.75,10.22-2.23,19.8-3.31,28.58-3.31,47.95,0,80.06-19.22,96.19-57.74,3.96-9.5,5.98-16.7,5.98-21.46-11.38,12.53-24.05,21.89-37.94,28.08-6.19,2.95-19.44,7.2-39.6,12.67,5.54-8.5,15.77-20.45,30.82-35.93,15.05-15.48,25.34-28.22,30.82-38.16Z"/><path class="cls-1" d="M34.56,64.37c2.23,9.94,3.89,17.64,4.97,23.11,9.86-17.57,17.42-27.65,22.54-30.24l14.33-2.23c7.34-1.87,11.02-6.05,11.02-12.67,0-13.61-8.28-20.38-24.77-20.38-12.46,0-25.34,7.49-38.52,22.54C11.59,58.1,4.32,71.5,2.09,84.67c7.34-5.11,12.67-8.93,15.98-11.52,7.7-5.47,13.18-8.42,16.49-8.78Z"/></g><rect class="cls-2" x="-561.46" y="-2342.3" width="2066.68" height="2871"/></svg>